{
  "accessors": [
    {
      "bufferView": 2,
      "componentType": 5126,
      "count": 10897,
      "max": [
        155.86239624023438,
        92.92279815673828,
        52.10966491699219
      ],
      "min": [
        -146.20826721191406,
        -80.02371215820313,
        -167.35958862304688
      ],
      "type": "VEC3"
    },
    {
      "bufferView": 2,
      "byteOffset": 130764,
      "componentType": 5126,
      "count": 10897,
      "max": [
        1.0,
        1.0,
        1.0
      ],
      "min": [
        -1.0,
        -1.0,
        -1.0
      ],
      "type": "VEC3"
    },
    {
      "bufferView": 3,
      "componentType": 5126,
      "count": 10897,
      "max": [
        1.0,
        1.0,
        1.0,
        1.0
      ],
      "min": [
        -1.0,
        -1.0,
        -1.0,
        -1.0
      ],
      "type": "VEC4"
    },
    {
      "bufferView": 1,
      "componentType": 5126,
      "count": 10897,
      "max": [
        0.9993353486061096,
        0.9982561469078064
      ],
      "min": [
        0.0013306003529578447,
        0.001344993943348527
      ],
      "type": "VEC2"
    },
    {
      "bufferView": 1,
      "byteOffset": 87176,
      "componentType": 5126,
      "count": 10897,
      "max": [
        0.9993353486061096,
        0.9982561469078064
      ],
      "min": [
        0.0013306003529578447,
        0.001344993943348527
      ],
      "type": "VEC2"
    },
    {
      "bufferView": 1,
      "byteOffset": 174352,
      "componentType": 5126,
      "count": 10897,
      "max": [
        0.9993353486061096,
        0.9982561469078064
      ],
      "min": [
        0.0013306003529578447,
        0.001344993943348527
      ],
      "type": "VEC2"
    },
    {
      "bufferView": 1,
      "byteOffset": 261528,
      "componentType": 5126,
      "count": 10897,
      "max": [
        0.9993353486061096,
        0.9982561469078064
      ],
      "min": [
        0.0013306003529578447,
        0.001344993943348527
      ],
      "type": "VEC2"
    },
    {
      "bufferView": 1,
      "byteOffset": 348704,
      "componentType": 5126,
      "count": 10897,
      "max": [
        0.9993353486061096,
        0.9982561469078064
      ],
      "min": [
        0.0013306003529578447,
        0.001344993943348527
      ],
      "type": "VEC2"
    },
    {
      "bufferView": 1,
      "byteOffset": 435880,
      "componentType": 5126,
      "count": 10897,
      "max": [
        0.9993353486061096,
        0.9982561469078064
      ],
      "min": [
        0.0013306003529578447,
        0.001344993943348527
      ],
      "type": "VEC2"
    },
    {
      "bufferView": 1,
      "byteOffset": 523056,
      "componentType": 5126,
      "count": 10897,
      "max": [
        0.9993353486061096,
        0.9982561469078064
      ],
      "min": [
        0.0013306003529578447,
        0.001344993943348527
      ],
      "type": "VEC2"
    },
    {
      "bufferView": 1,
      "byteOffset": 610232,
      "componentType": 5126,
      "count": 10897,
      "max": [
        0.9993353486061096,
        0.9982561469078064
      ],
      "min": [
        0.0013306003529578447,
        0.001344993943348527
      ],
      "type": "VEC2"
    },
    {
      "bufferView": 1,
      "byteOffset": 697408,
      "componentType": 5126,
      "count": 10897,
      "max": [
        0.9993353486061096,
        0.9982561469078064
      ],
      "min": [
        0.0013306003529578447,
        0.001344993943348527
      ],
      "type": "VEC2"
    },
    {
      "bufferView": 1,
      "byteOffset": 784584,
      "componentType": 5126,
      "count": 10897,
      "max": [
        0.9993353486061096,
        0.9982561469078064
      ],
      "min": [
        0.0013306003529578447,
        0.001344993943348527
      ],
      "type": "VEC2"
    },
    {
      "bufferView": 0,
      "componentType": 5125,
      "count": 41091,
      "type": "SCALAR"
    },
    {
      "bufferView": 2,
      "byteOffset": 261528,
      "componentType": 5126,
      "count": 4905,
      "max": [
        55.89777374267578,
        55.897769927978516,
        78.68533325195313
      ],
      "min": [
        -55.897769927978516,
        -55.89777374267578,
        -79.60444641113281
      ],
      "type": "VEC3"
    },
    {
      "bufferView": 2,
      "byteOffset": 320388,
      "componentType": 5126,
      "count": 4905,
      "max": [
        1.0,
        1.0,
        1.0
      ],
      "min": [
        -1.0,
        -1.0,
        -1.0
      ],
      "type": "VEC3"
    },
    {
      "bufferView": 3,
      "byteOffset": 174352,
      "componentType": 5126,
      "count": 4905,
      "max": [
        1.0,
        1.0,
        0.9999995231628418,
        1.0
      ],
      "min": [
        -1.0,
        -1.0,
        -0.9999997615814209,
        1.0
      ],
      "type": "VEC4"
    },
    {
      "bufferView": 1,
      "byteOffset": 871760,
      "componentType": 5126,
      "count": 4905,
      "max": [
        0.9971330165863037,
        0.9739919304847717
      ],
      "min": [
        0.0005000000237487257,
        0.0005000000237487257
      ],
      "type": "VEC2"
    },
    {
      "bufferView": 1,
      "byteOffset": 911000,
      "componentType": 5126,
      "count": 4905,
      "max": [
        0.9971330165863037,
        0.9739919304847717
      ],
      "min": [
        0.0005000000237487257,
        0.0005000000237487257
      ],
      "type": "VEC2"
    },
    {
      "bufferView": 1,
      "byteOffset": 950240,
      "componentType": 5126,
      "count": 4905,
      "max": [
        0.9971330165863037,
        0.9739919304847717
      ],
      "min": [
        0.0005000000237487257,
        0.0005000000237487257
      ],
      "type": "VEC2"
    },
    {
      "bufferView": 1,
      "byteOffset": 989480,
      "componentType": 5126,
      "count": 4905,
      "max": [
        0.9971330165863037,
        0.9739919304847717
      ],
      "min": [
        0.0005000000237487257,
        0.0005000000237487257
      ],
      "type": "VEC2"
    },
    {
      "bufferView": 1,
      "byteOffset": 1028720,
      "componentType": 5126,
      "count": 4905,
      "max": [
        0.9971330165863037,
        0.9739919304847717
      ],
      "min": [
        0.0005000000237487257,
        0.0005000000237487257
      ],
      "type": "VEC2"
    },
    {
      "bufferView": 1,
      "byteOffset": 1067960,
      "componentType": 5126,
      "count": 4905,
      "max": [
        0.9971330165863037,
        0.9739919304847717
      ],
      "min": [
        0.0005000000237487257,
        0.0005000000237487257
      ],
      "type": "VEC2"
    },
    {
      "bufferView": 1,
      "byteOffset": 1107200,
      "componentType": 5126,
      "count": 4905,
      "max": [
        0.9971330165863037,
        0.9739919304847717
      ],
      "min": [
        0.0005000000237487257,
        0.0005000000237487257
      ],
      "type": "VEC2"
    },
    {
      "bufferView": 1,
      "byteOffset": 1146440,
      "componentType": 5126,
      "count": 4905,
      "max": [
        0.9971330165863037,
        0.9739919304847717
      ],
      "min": [
        0.0005000000237487257,
        0.0005000000237487257
      ],
      "type": "VEC2"
    },
    {
      "bufferView": 1,
      "byteOffset": 1185680,
      "componentType": 5126,
      "count": 4905,
      "max": [
        0.9971330165863037,
        0.9739919304847717
      ],
      "min": [
        0.0005000000237487257,
        0.0005000000237487257
      ],
      "type": "VEC2"
    },
    {
      "bufferView": 1,
      "byteOffset": 1224920,
      "componentType": 5126,
      "count": 4905,
      "max": [
        0.9971330165863037,
        0.9739919304847717
      ],
      "min": [
        0.0005000000237487257,
        0.0005000000237487257
      ],
      "type": "VEC2"
    },
    {
      "bufferView": 0,
      "byteOffset": 164364,
      "componentType": 5125,
      "count": 21786,
      "type": "SCALAR"
    }
  ],
  "asset": {
    "extras": {
      "author": "Loïc ALIX (https://sketchfab.com/loic.alix)",
      "license": "CC-BY-4.0 (http://creativecommons.org/licenses/by/4.0/)",
      "source": "https://sketchfab.com/3d-models/canon-eos-60d-ef-85mm-f14l-is-usm-lens-80f7a79909b3492c82e7ebab76f0c93f",
      "title": "Canon EOS 60D + EF 85mm f/1.4l IS USM Lens"
    },
    "generator": "Sketchfab-12.68.0",
    "version": "2.0"
  },
  "bufferViews": [
    {
      "buffer": 0,
      "byteLength": 251508,
      "name": "floatBufferViews",
      "target": 34963
    },
    {
      "buffer": 0,
      "byteLength": 1264160,
      "byteOffset": 251508,
      "byteStride": 8,
      "name": "floatBufferViews",
      "target": 34962
    },
    {
      "buffer": 0,
      "byteLength": 379248,
      "byteOffset": 1515668,
      "byteStride": 12,
      "name": "floatBufferViews",
      "target": 34962
    },
    {
      "buffer": 0,
      "byteLength": 252832,
      "byteOffset": 1894916,
      "byteStride": 16,
      "name": "floatBufferViews",
      "target": 34962
    }
  ],
  "buffers": [
    {
      "byteLength": 2147748,
      "uri": "scene.bin"
    }
  ],
  "extensionsUsed": [
    "KHR_materials_transmission"
  ],
  "images": [
    {
      "uri": "textures/Camera_baseColor.png"
    },
    {
      "uri": "textures/Camera_metallicRoughness.png"
    },
    {
      "uri": "textures/Camera_normal.png"
    },
    {
      "uri": "textures/Lens_baseColor.png"
    },
    {
      "uri": "textures/Lens_metallicRoughness.png"
    },
    {
      "uri": "textures/Lens_normal.png"
    },
    {
      "uri": "textures/Lens_transmission.png"
    }
  ],
  "materials": [
    {
      "alphaMode": "BLEND",
      "doubleSided": true,
      "name": "Camera",
      "normalTexture": {
        "index": 2
      },
      "occlusionTexture": {
        "index": 1
      },
      "pbrMetallicRoughness": {
        "baseColorTexture": {
          "index": 0
        },
        "metallicRoughnessTexture": {
          "index": 1
        }
      }
    },
    {
      "alphaMode": "BLEND",
      "doubleSided": true,
      "extensions": {
        "KHR_materials_transmission": {
          "transmissionFactor": 1.0,
          "transmissionTexture": {
            "index": 6
          }
        }
      },
      "name": "Lens",
      "normalTexture": {
        "index": 5
      },
      "occlusionTexture": {
        "index": 4
      },
      "pbrMetallicRoughness": {
        "baseColorTexture": {
          "index": 3
        },
        "metallicRoughnessTexture": {
          "index": 4
        }
      }
    }
  ],
  "meshes": [
    {
      "name": "Camera_Camera_0",
      "primitives": [
        {
          "attributes": {
            "NORMAL": 1,
            "POSITION": 0,
            "TANGENT": 2,
            "TEXCOORD_0": 3,
            "TEXCOORD_1": 4,
            "TEXCOORD_2": 5,
            "TEXCOORD_3": 6,
            "TEXCOORD_4": 7,
            "TEXCOORD_5": 8,
            "TEXCOORD_6": 9,
            "TEXCOORD_7": 10,
            "TEXCOORD_8": 11,
            "TEXCOORD_9": 12
          },
          "indices": 13,
          "material": 0,
          "mode": 4
        }
      ]
    },
    {
      "name": "Lens_Lens_0",
      "primitives": [
        {
          "attributes": {
            "NORMAL": 15,
            "POSITION": 14,
            "TANGENT": 16,
            "TEXCOORD_0": 17,
            "TEXCOORD_1": 18,
            "TEXCOORD_2": 19,
            "TEXCOORD_3": 20,
            "TEXCOORD_4": 21,
            "TEXCOORD_5": 22,
            "TEXCOORD_6": 23,
            "TEXCOORD_7": 24,
            "TEXCOORD_8": 25,
            "TEXCOORD_9": 26
          },
          "indices": 27,
          "material": 1,
          "mode": 4
        }
      ]
    }
  ],
  "nodes": [
    {
      "children": [
        1
      ],
      "matrix": [
        1.0,
        0.0,
        0.0,
        0.0,
        0.0,
        2.220446049250313e-16,
        -1.0,
        0.0,
        0.0,
        1.0,
        2.220446049250313e-16,
        0.0,
        0.0,
        0.0,
        0.0,
        1.0
      ],
      "name": "Sketchfab_model"
    },
    {
      "children": [
        2
      ],
      "matrix": [
        1.0,
        0.0,
        0.0,
        0.0,
        0.0,
        0.0,
        1.0,
        0.0,
        0.0,
        -1.0,
        0.0,
        0.0,
        0.0,
        0.0,
        0.0,
        1.0
      ],
      "name": "a33b871b54394d82a43a2abc66c01bc8.fbx"
    },
    {
      "children": [
        3,
        6
      ],
      "name": "RootNode"
    },
    {
      "children": [
        4
      ],
      "matrix": [
        1.0,
        0.0,
        0.0,
        0.0,
        0.0,
        2.220446049250313e-16,
        -1.0,
        0.0,
        0.0,
        1.0,
        2.220446049250313e-16,
        0.0,
        0.0,
        0.0,
        0.0,
        1.0
      ],
      "name": "Camera"
    },
    {
      "children": [
        5
      ],
      "matrix": [
        1.0,
        0.0,
        -0.0,
        0.0,
        0.0,
        1.0,
        0.0,
        0.0,
        0.0,
        0.0,
        1.0,
        0.0,
        -4.827064514160156,
        -6.449542999267578,
        166.9496612548828,
        1.0
      ],
      "name": "Object_4"
    },
    {
      "mesh": 0,
      "name": "Camera_Camera_0"
    },
    {
      "children": [
        7
      ],
      "matrix": [
        -1.3868449926376294,
        -1.212418327126483e-07,
        1.6983952069080054e-16,
        0.0,
        1.212418327126482e-07,
        -1.386844992637628,
        6.062091627140444e-08,
        0.0,
        -5.129808982554354e-15,
        6.062091627140422e-08,
        1.386844992637633,
        0.0,
        30.0,
        80.0,
        59.950164794921875,
        1.0
      ],
      "name": "Lens"
    },
    {
      "children": [
        8
      ],
      "matrix": [
        1.0,
        0.0,
        -0.0,
        0.0,
        0.0,
        1.0,
        0.0,
        0.0,
        0.0,
        0.0,
        1.0,
        0.0,
        -1.9073486328125e-06,
        2.726472303038463e-06,
        79.60443115234375,
        1.0
      ],
      "name": "Object_7"
    },
    {
      "mesh": 1,
      "name": "Lens_Lens_0"
    }
  ],
  "samplers": [
    {
      "magFilter": 9729,
      "minFilter": 9987,
      "wrapS": 10497,
      "wrapT": 10497
    }
  ],
  "scene": 0,
  "scenes": [
    {
      "name": "Sketchfab_Scene",
      "nodes": [
        0
      ]
    }
  ],
  "textures": [
    {
      "sampler": 0,
      "source": 0
    },
    {
      "sampler": 0,
      "source": 1
    },
    {
      "sampler": 0,
      "source": 2
    },
    {
      "sampler": 0,
      "source": 3
    },
    {
      "sampler": 0,
      "source": 4
    },
    {
      "sampler": 0,
      "source": 5
    },
    {
      "sampler": 0,
      "source": 6
    }
  ]
}
